# xmcd
#
# Track frame offsets: 
#        150
#        9301
#        19409
#        31372
#        43174
#        54004
#        66540
#        81126
#        97147
#        107854
#        118495
#        129555
#        142458
#        155186
#
# Disc length: 2180 seconds
#
# Revision: 0
# Processed by: cddbd v1.5.2PL0 Copyright (c) Steve Scherf et al.
# Submitted via: ExactAudioCopyFreeDBPlugin 1.0
#
DISCID=d408820e
DTITLE=Chapin Sisters - A Date With The Everly Brothers
DYEAR=2013
DGENRE=Country
TTITLE0=Crying In The Rain
TTITLE1=Brand New Heartache
TTITLE2=Sleepless Nights
TTITLE3=Sigh, Cry, Almost Die
TTITLE4=Cathy's Clown
TTITLE5=So Sad To Watch Good Love Go Bad
TTITLE6=All I Have To Do Is Dream
TTITLE7=When Will I Be Loved
TTITLE8=Some Sweet Day
TTITLE9=Love Hurts
TTITLE10=Always It's You
TTITLE11=Down In The Willow Garden
TTITLE12='Til I Kissed You
TTITLE13=Maybe Tomorrow
EXTD=
EXTT0=
EXTT1=
EXTT2=
EXTT3=
EXTT4=
EXTT5=
EXTT6=
EXTT7=
EXTT8=
EXTT9=
EXTT10=
EXTT11=
EXTT12=
EXTT13=
PLAYORDER=
